<svg xmlns="http://www.w3.org/2000/svg" viewBox="0 0 64 64" fill="none">
  <!-- Outer gear ring -->
  <path fill="#1F2937" d="M57.153 27.03l-5.584-1.498c-.358-1.298-.838-2.546-1.43-3.726l3.326-4.751c.424-.607.367-1.426-.135-1.969l-4.242-4.242c-.543-.502-1.362-.559-1.969-.135l-4.751 3.326c-1.18-.592-2.428-1.072-3.726-1.43l-1.498-5.584C36.859 6.367 36.302 6 35.675 6h-6c-.627 0-1.184.367-1.469 1.021l-1.498 5.584c-1.298.358-2.546.838-3.726 1.43l-4.751-3.326c-.607-.424-1.426-.367-1.969.135l-4.242 4.242c-.502.543-.559 1.362-.135 1.969l3.326 4.751c-.592 1.18-1.072 2.428-1.43 3.726l-5.584 1.498C6.367 27.315 6 27.872 6 28.499v6c0 .627.367 1.184 1.021 1.469l5.584 1.498c.358 1.298.838 2.546 1.43 3.726l-3.326 4.751c-.424.607-.367 1.426.135 1.969l4.242 4.242c.543.502 1.362.559 1.969.135l4.751-3.326c1.18.592 2.428 1.072 3.726 1.43l1.498 5.584c.285.654.842 1.021 1.469 1.021h6c.627 0 1.184-.367 1.469-1.021l1.498-5.584c1.298-.358 2.546-.838 3.726-1.43l4.751 3.326c.607.424 1.426.367 1.969-.135l4.242-4.242c.502-.543.559-1.362.135-1.969l-3.326-4.751c.592-1.18 1.072-2.428 1.43-3.726l5.584-1.498c.654-.285 1.021-.842 1.021-1.469v-6c0-.627-.367-1.184-1.021-1.469z"/>
  
  <!-- Inner gear circle -->
  <path fill="#1F2937" d="M32 44c6.627 0 12-5.373 12-12s-5.373-12-12-12-12 5.373-12 12 5.373 12 12 12zm0-4c4.418 0 8-3.582 8-8s-3.582-8-8-8-8 3.582-8 8 3.582 8 8 8z"/>
</svg> 